<svg width="170" height="44" viewBox="0 0 170 44" fill="none" xmlns="http://www.w3.org/2000/svg">
<path d="M160.376 8.64H169.016L160.616 42.288L152.264 43.44L160.376 8.64ZM156.056 17.376L152.024 34.704L145.928 8.64H154.808L156.056 17.376Z" fill="#393939"/>
<path d="M135.831 17.376C135.831 16.448 135.511 15.824 134.871 15.504C134.231 15.152 133.415 14.976 132.423 14.976C131.207 14.976 130.039 15.088 128.919 15.312C127.799 15.536 126.679 15.856 125.559 16.272V9.55199C126.999 9.23199 128.487 8.944 130.023 8.688C131.591 8.4 133.159 8.256 134.727 8.256C136.487 8.256 138.103 8.48 139.575 8.928C141.047 9.344 142.231 10.112 143.127 11.232C144.023 12.352 144.471 13.952 144.471 16.032V36.24H136.983L135.831 32.112V17.376ZM133.431 30.288V36.192C132.599 36.544 131.703 36.72 130.743 36.72C129.463 36.72 128.263 36.4 127.143 35.76C126.023 35.088 125.111 34.128 124.407 32.88C123.703 31.632 123.351 30.128 123.351 28.368C123.351 25.68 124.279 23.632 126.135 22.224C128.023 20.784 130.455 20.048 133.431 20.016V25.104C132.919 25.328 132.503 25.648 132.183 26.064C131.895 26.448 131.751 26.944 131.751 27.552C131.751 28.288 131.911 28.896 132.231 29.376C132.551 29.824 132.951 30.128 133.431 30.288Z" fill="#393939"/>
<path d="M120.482 36.24H111.842V1.152L120.482 0V36.24Z" fill="#393939"/>
<path d="M97.0537 14.976V8.784C98.0457 8.432 99.0697 8.256 100.126 8.256C101.886 8.256 103.326 8.64 104.446 9.408C105.598 10.144 106.494 11.168 107.134 12.48C107.806 13.792 108.27 15.28 108.526 16.944C108.814 18.576 108.958 20.304 108.958 22.128C108.958 27.376 108.142 31.12 106.51 33.36C104.878 35.6 102.494 36.72 99.3577 36.72C99.0057 36.72 98.6377 36.688 98.2537 36.624C97.8697 36.592 97.4697 36.544 97.0537 36.48V30C98.3337 29.84 99.1497 29.088 99.5017 27.744C99.8537 26.4 100.03 24.448 100.03 21.888C100.03 19.36 99.8377 17.584 99.4537 16.56C99.0697 15.504 98.3497 14.976 97.2937 14.976H97.0537ZM94.6537 12.384V42.192L86.0137 43.44V8.64H93.3577L94.6537 12.384Z" fill="#393939"/>
<path d="M73.5452 8.64H82.1852V36.24H73.5452V8.64ZM73.3052 0H82.4252V6.528H73.3052V0Z" fill="#393939"/>
<path d="M60.186 21.12H51.258C51.386 18.656 51.818 16.592 52.554 14.928C53.322 13.264 54.314 11.952 55.53 10.992C56.778 10 58.154 9.296 59.658 8.88C61.194 8.464 62.778 8.256 64.41 8.256C65.53 8.256 66.554 8.336 67.482 8.496C68.41 8.656 69.37 8.896 70.362 9.216V20.016H65.418L64.458 15.024C63.146 15.024 62.122 15.472 61.386 16.368C60.682 17.264 60.282 18.848 60.186 21.12ZM51.21 23.568H60.186C60.314 25.872 60.826 27.488 61.722 28.416C62.65 29.344 63.866 29.808 65.37 29.808C66.906 29.776 68.634 29.52 70.554 29.04V35.856C69.562 36.144 68.394 36.352 67.05 36.48C65.706 36.64 64.474 36.72 63.354 36.72C61.146 36.72 59.146 36.352 57.354 35.616C55.562 34.848 54.122 33.504 53.034 31.584C51.946 29.664 51.338 26.992 51.21 23.568Z" fill="#393939"/>
<path d="M41.1476 36.72C39.2596 36.72 37.5316 36.512 35.9636 36.096C34.4276 35.68 33.0996 34.944 31.9796 33.888C30.8596 32.832 29.9956 31.376 29.3876 29.52C28.7796 27.664 28.4756 25.296 28.4756 22.416C28.4756 17.936 29.2756 14.512 30.8756 12.144C32.4756 9.744 35.0516 8.448 38.6036 8.256V15.312C37.8996 16.4 37.5476 18.72 37.5476 22.272C37.5476 24.352 37.7076 25.952 38.0276 27.072C38.3476 28.192 38.9556 28.96 39.8516 29.376C40.7796 29.792 42.0916 30 43.7876 30C44.5236 30 45.2756 29.936 46.0436 29.808C46.8436 29.68 47.6116 29.536 48.3476 29.376V35.904C47.2276 36.128 46.0436 36.32 44.7956 36.48C43.5796 36.64 42.3636 36.72 41.1476 36.72ZM39.9476 25.104V19.776H41.5316C41.5316 19.04 41.4996 18.256 41.4356 17.424C41.4036 16.592 41.2436 15.904 40.9556 15.36V8.304C43.9956 8.56 46.1876 9.664 47.5316 11.616C48.8756 13.536 49.5476 16.256 49.5476 19.776C49.5476 20.672 49.5156 21.6 49.4516 22.56C49.3876 23.488 49.2756 24.336 49.1156 25.104H39.9476Z" fill="#393939"/>
<path d="M14.4 18.768V18.144C15.68 17.536 16.32 16.016 16.32 13.584C16.32 12.112 16.192 11.024 15.936 10.32C15.68 9.58401 15.232 9.08801 14.592 8.83201C13.984 8.57601 13.12 8.44801 12 8.44801H2.64L0 1.68001H13.632C16.448 1.68001 18.8 2.04801 20.688 2.78401C22.576 3.48801 23.984 4.68801 24.912 6.38401C25.872 8.04801 26.352 10.336 26.352 13.248C26.352 16.608 25.616 19.184 24.144 20.976L27.744 36.24H18.144L14.4 18.768ZM12 36.24H2.64V10.848H12V36.24Z" fill="#393939"/>
</svg>
